<svg width="426" height="91" viewBox="0 0 426 91" fill="none" xmlns="http://www.w3.org/2000/svg">
    <path d="M63.54 76.53C63.54 77.355 64.2 78 65.025 78C65.85 78 66.525 77.355 66.525 76.53V70.02L72.315 61.335C72.57 61.005 72.69 60.645 72.69 60.315C72.69 59.52 71.97 58.83 71.175 58.83C70.77 58.83 70.365 59.01 70.08 59.34L65.025 67.08L59.94 59.37C59.67 59.01 59.25 58.845 58.845 58.845C57.99 58.845 57.315 59.535 57.315 60.375C57.315 60.735 57.435 61.065 57.675 61.35L63.54 70.035V76.53ZM77.427 63.87C73.497 63.87 70.272 67.08 70.272 71.025C70.272 74.97 73.497 78.18 77.427 78.18C81.372 78.18 84.567 74.97 84.567 71.025C84.567 67.08 81.372 63.87 77.427 63.87ZM77.427 75.18C75.132 75.18 73.272 73.305 73.272 71.025C73.272 68.715 75.132 66.885 77.427 66.885C79.752 66.885 81.582 68.715 81.582 71.025C81.582 73.305 79.752 75.18 77.427 75.18ZM89.5479 65.325C89.5479 64.5 88.8729 63.855 88.0629 63.855C87.2379 63.855 86.5629 64.5 86.5629 65.325V71.055C86.5629 75.06 88.9179 78.015 92.4129 78.015C93.8229 78.015 95.1579 77.37 96.2529 76.32V76.53C96.2529 77.355 96.8829 78.03 97.7079 78.03C98.5479 78.03 99.2379 77.355 99.2379 76.53V65.37C99.2379 64.545 98.5479 63.885 97.7379 63.885C96.9129 63.885 96.2529 64.545 96.2529 65.37V71.16C96.2529 73.38 94.7529 75.045 92.7579 75.045C90.7629 75.045 89.5629 73.47 89.5479 71.085V65.325ZM103.741 63.855C102.901 63.855 102.226 64.53 102.226 65.355V76.515C102.226 77.34 102.916 78 103.726 78C104.551 78 105.211 77.34 105.211 76.515V71.37C105.211 68.865 107.236 66.84 109.681 66.84H109.741C110.596 66.84 111.286 66.21 111.286 65.355C111.286 64.5 110.716 63.87 109.741 63.87H109.681C108.001 63.87 106.456 64.44 105.211 65.385V65.355C105.211 64.53 104.581 63.855 103.741 63.855ZM126.148 63.87C122.218 63.87 118.993 67.08 118.993 71.025C118.993 74.97 122.218 78.18 126.148 78.18C127.693 78.18 129.133 77.58 130.303 76.635C130.378 77.4 130.963 78 131.758 78C132.613 78 133.288 77.31 133.288 76.47V70.965C133.243 67.05 130.063 63.87 126.148 63.87ZM126.148 75.18C123.853 75.18 121.993 73.305 121.993 71.025C121.993 68.715 123.853 66.885 126.148 66.885C128.473 66.885 130.303 68.715 130.303 71.025C130.303 73.305 128.473 75.18 126.148 75.18ZM139.268 81.6V76.83C140.438 77.685 141.878 78.18 143.438 78.18C147.383 78.18 150.578 74.97 150.578 71.025C150.578 67.08 147.383 63.87 143.438 63.87C141.878 63.87 140.438 64.38 139.268 65.22C139.208 64.455 138.548 63.87 137.768 63.87C136.943 63.87 136.283 64.515 136.283 65.34V81.6C136.283 82.425 136.943 83.07 137.768 83.07C138.593 83.07 139.268 82.425 139.268 81.6ZM143.438 75.18C141.143 75.18 139.283 73.305 139.283 71.025C139.283 68.715 141.143 66.885 143.438 66.885C145.763 66.885 147.593 68.715 147.593 71.025C147.593 73.305 145.763 75.18 143.438 75.18ZM155.704 81.6V76.83C156.874 77.685 158.314 78.18 159.874 78.18C163.819 78.18 167.014 74.97 167.014 71.025C167.014 67.08 163.819 63.87 159.874 63.87C158.314 63.87 156.874 64.38 155.704 65.22C155.644 64.455 154.984 63.87 154.204 63.87C153.379 63.87 152.719 64.515 152.719 65.34V81.6C152.719 82.425 153.379 83.07 154.204 83.07C155.029 83.07 155.704 82.425 155.704 81.6ZM159.874 75.18C157.579 75.18 155.719 73.305 155.719 71.025C155.719 68.715 157.579 66.885 159.874 66.885C162.199 66.885 164.029 68.715 164.029 71.025C164.029 73.305 162.199 75.18 159.874 75.18ZM177.198 63.9H176.118C175.293 63.9 174.618 64.545 174.618 65.37C174.618 66.195 175.293 66.885 176.118 66.885H177.198V76.53C177.198 77.355 177.873 78 178.698 78C179.523 78 180.183 77.355 180.183 76.53V66.885H181.473C182.328 66.885 182.973 66.225 182.973 65.37C182.973 64.545 182.328 63.9 181.473 63.9H180.183V60.27C180.183 59.445 179.523 58.8 178.698 58.8C177.873 58.8 177.198 59.445 177.198 60.27V63.9ZM190.923 63.87C186.993 63.87 183.768 67.08 183.768 71.025C183.768 74.97 186.993 78.18 190.923 78.18C194.868 78.18 198.063 74.97 198.063 71.025C198.063 67.08 194.868 63.87 190.923 63.87ZM190.923 75.18C188.628 75.18 186.768 73.305 186.768 71.025C186.768 68.715 188.628 66.885 190.923 66.885C193.248 66.885 195.078 68.715 195.078 71.025C195.078 73.305 193.248 75.18 190.923 75.18ZM209.407 72.375H218.992C219.847 72.375 220.462 71.79 220.462 70.95C220.417 67.035 217.192 63.87 213.277 63.87C209.332 63.87 206.092 67.065 206.092 71.025C206.092 74.985 209.332 78.165 213.277 78.165C215.542 78.165 216.937 77.415 217.852 76.545C218.242 76.215 218.422 75.81 218.422 75.405C218.422 75.105 218.332 74.82 218.167 74.58C217.897 74.13 217.477 73.86 216.952 73.86C216.637 73.86 216.307 73.965 215.962 74.235C215.377 74.865 214.552 75.3 213.277 75.3C211.432 75.3 209.887 74.07 209.407 72.375ZM217.387 69.885H209.317C209.722 68.1 211.312 66.72 213.322 66.72C215.332 66.72 216.967 68.055 217.387 69.885ZM228.921 63.87C224.991 63.87 221.766 67.08 221.766 71.025C221.766 74.97 224.991 78.18 228.921 78.18C230.466 78.18 231.906 77.58 233.076 76.635C233.151 77.4 233.736 78 234.531 78C235.386 78 236.061 77.31 236.061 76.47V70.965C236.016 67.05 232.836 63.87 228.921 63.87ZM228.921 75.18C226.626 75.18 224.766 73.305 224.766 71.025C224.766 68.715 226.626 66.885 228.921 66.885C231.246 66.885 233.076 68.715 233.076 71.025C233.076 73.305 231.246 75.18 228.921 75.18ZM240.362 63.9H239.282C238.457 63.9 237.782 64.545 237.782 65.37C237.782 66.195 238.457 66.885 239.282 66.885H240.362V76.53C240.362 77.355 241.037 78 241.862 78C242.687 78 243.347 77.355 243.347 76.53V66.885H244.637C245.492 66.885 246.137 66.225 246.137 65.37C246.137 64.545 245.492 63.9 244.637 63.9H243.347V60.27C243.347 59.445 242.687 58.8 241.862 58.8C241.037 58.8 240.362 59.445 240.362 60.27V63.9ZM256.398 74.19C255.993 73.695 255.498 73.485 255.048 73.485C254.313 73.485 253.683 74.025 253.683 74.805C253.683 75.06 253.743 75.33 253.908 75.63C254.868 77.415 257.148 78.165 259.038 78.165C261.933 78.165 264.078 76.305 264.078 73.92C264.078 71.355 261.963 70.455 259.578 69.705C258.108 69.255 257.028 68.85 257.028 67.875C257.028 66.915 257.958 66.465 259.173 66.465C260.253 66.465 260.853 67.065 261.693 67.665C261.858 67.74 262.023 67.77 262.188 67.77C262.863 67.77 263.493 67.185 263.493 66.495C263.493 66.3 263.433 66.075 263.328 65.85C262.638 64.5 260.643 63.84 258.963 63.84C256.398 63.84 254.028 65.445 254.028 67.965C254.028 70.365 256.353 71.37 258.753 72.21C259.758 72.51 261.183 72.885 261.183 74.04C261.183 74.985 260.118 75.54 259.023 75.54C257.778 75.54 257.043 75.12 256.398 74.19ZM282.397 69.255V76.53C282.397 77.355 283.102 78 283.912 78C284.722 78 285.382 77.355 285.382 76.53V69.3C285.367 66.315 283.387 63.855 280.342 63.855C278.782 63.855 277.207 64.545 276.052 65.61C275.152 64.53 273.832 63.855 272.242 63.855C271.102 63.855 270.097 64.335 269.287 65.1C269.167 64.395 268.597 63.855 267.847 63.855C267.022 63.855 266.332 64.53 266.332 65.355V76.515C266.332 77.34 267.022 78 267.832 78C268.657 78 269.317 77.34 269.317 76.515V69.45V69.39C269.317 69.33 269.302 69.285 269.317 69.27V69.18C269.377 67.89 270.727 66.855 272.062 66.855C273.397 66.855 274.312 67.845 274.357 69.195V76.53C274.357 77.355 275.062 78 275.872 78C276.682 78 277.342 77.355 277.342 76.53V69.195C277.417 67.905 278.752 66.855 280.087 66.855C281.452 66.855 282.367 67.875 282.397 69.255ZM294.488 63.87C290.558 63.87 287.333 67.08 287.333 71.025C287.333 74.97 290.558 78.18 294.488 78.18C296.033 78.18 297.473 77.58 298.643 76.635C298.718 77.4 299.303 78 300.098 78C300.953 78 301.628 77.31 301.628 76.47V70.965C301.583 67.05 298.403 63.87 294.488 63.87ZM294.488 75.18C292.193 75.18 290.333 73.305 290.333 71.025C290.333 68.715 292.193 66.885 294.488 66.885C296.813 66.885 298.643 68.715 298.643 71.025C298.643 73.305 296.813 75.18 294.488 75.18ZM306.153 63.855C305.313 63.855 304.638 64.53 304.638 65.355V76.515C304.638 77.34 305.328 78 306.138 78C306.963 78 307.623 77.34 307.623 76.515V71.37C307.623 68.865 309.648 66.84 312.093 66.84H312.153C313.008 66.84 313.698 66.21 313.698 65.355C313.698 64.5 313.128 63.87 312.153 63.87H312.093C310.413 63.87 308.868 64.44 307.623 65.385V65.355C307.623 64.53 306.993 63.855 306.153 63.855ZM316.826 63.9H315.746C314.921 63.9 314.246 64.545 314.246 65.37C314.246 66.195 314.921 66.885 315.746 66.885H316.826V76.53C316.826 77.355 317.501 78 318.326 78C319.151 78 319.811 77.355 319.811 76.53V66.885H321.101C321.956 66.885 322.601 66.225 322.601 65.37C322.601 64.545 321.956 63.9 321.101 63.9H319.811V60.27C319.811 59.445 319.151 58.8 318.326 58.8C317.501 58.8 316.826 59.445 316.826 60.27V63.9ZM324.31 76.395C324.31 77.37 325.105 78.18 326.08 78.18C327.07 78.18 327.865 77.37 327.865 76.395C327.865 75.42 327.07 74.61 326.08 74.61C325.105 74.61 324.31 75.42 324.31 76.395Z" fill="#322929"/>
    <path d="M100.957 22.7976V33.1784C100.957 35.4174 99.1254 37.2493 96.8864 37.2493C94.6474 37.2493 92.8154 35.4174 92.8154 33.1784V22.7976C92.8154 18.9302 90.9835 17.0983 88.3374 17.0983C84.2665 17.0983 83.2488 21.3728 83.2488 21.7799V22.7976V33.1784C83.2488 35.4174 81.4169 37.2493 79.1779 37.2493C76.9389 37.2493 75.1069 35.4174 75.1069 33.1784V22.7976C75.1069 18.9302 73.275 17.0983 70.6289 17.0983C66.558 17.0983 65.5403 21.3728 65.5403 21.7799V32.9749C65.5403 35.2139 63.7084 37.0458 61.4694 37.0458C59.2304 37.0458 57.3984 35.2139 57.3984 32.9749V14.2487C57.3984 12.0096 59.2304 10.1777 61.4694 10.1777C63.7084 10.1777 65.5403 12.0096 65.5403 14.2487V15.877C65.7438 14.0451 68.5935 10.1777 73.6821 10.1777C77.3459 10.1777 80.6027 12.0096 82.231 16.2841C83.6559 13.2309 86.7091 10.1777 91.3906 10.1777C96.6828 10.1777 100.957 13.8416 100.957 22.7976Z" fill="#322929"/>
    <path d="M114.595 4.07092C114.595 1.83191 116.427 0 118.666 0C120.905 0 122.737 1.83191 122.737 4.07092C122.737 6.10638 120.701 7.93828 118.666 7.93828C116.63 7.93828 114.595 6.10638 114.595 4.07092ZM122.94 14.2482V32.9745C122.94 35.2135 121.108 37.0454 118.869 37.0454C116.63 37.0454 114.798 35.2135 114.798 32.9745V14.2482C114.798 12.0092 116.63 10.1773 118.869 10.1773C121.108 10.1773 122.94 12.0092 122.94 14.2482Z" fill="#322929"/>
    <path d="M164.464 22.7976V33.1784C164.464 35.4174 162.632 37.2493 160.393 37.2493C158.154 37.2493 156.322 35.4174 156.322 33.1784V22.7976C156.322 18.9302 154.49 17.0983 151.844 17.0983C147.773 17.0983 146.755 21.3728 146.755 21.7799V32.9749C146.755 35.2139 144.923 37.0458 142.684 37.0458C140.445 37.0458 138.613 35.2139 138.613 32.9749V14.2487C138.613 12.0096 140.445 10.1777 142.684 10.1777C144.923 10.1777 146.755 12.0096 146.755 14.2487V15.877C146.959 14.0451 149.808 10.1777 154.897 10.1777C160.393 10.1777 164.464 13.8416 164.464 22.7976Z" fill="#322929"/>
    <path d="M180.34 4.07092C180.34 1.83191 182.172 0 184.411 0C186.65 0 188.482 1.83191 188.482 4.07092C188.482 6.10638 186.65 7.93828 184.411 7.93828C182.172 7.93828 180.34 6.10638 180.34 4.07092ZM188.482 14.2482V32.9745C188.482 35.2135 186.65 37.0454 184.411 37.0454C182.172 37.0454 180.34 35.2135 180.34 32.9745V14.2482C180.34 12.0092 182.172 10.1773 184.411 10.1773C186.65 10.1773 188.482 12.0092 188.482 14.2482Z" fill="#322929"/>
    <path d="M244.864 5.08869V32.771C244.864 35.01 242.829 37.0454 240.59 37.0454C238.351 37.0454 236.519 35.01 236.519 32.771V19.744L229.395 33.178C228.581 34.6028 227.359 35.417 225.731 35.417C224.306 35.417 222.881 34.6028 222.271 33.178L215.147 19.744V32.771C215.147 35.01 213.315 37.0454 210.872 37.0454C208.43 37.0454 206.598 35.01 206.598 32.771V5.08869C206.598 2.4426 208.633 1.22133 210.465 1.22133C212.093 1.22133 213.722 2.64613 214.536 3.8674L225.731 23.6114L236.926 3.8674C237.74 2.44258 239.369 1.22133 240.997 1.22133C242.829 1.01779 244.864 2.4426 244.864 5.08869Z" fill="#322929"/>
    <path d="M281.91 22.3904C281.91 25.6471 280.281 26.6649 277.025 26.6649L263.998 26.4613C264.812 29.1074 266.847 30.5322 270.104 30.5322C271.529 30.5322 271.936 30.3287 273.361 29.9216C274.378 29.5145 275.396 29.1074 276.21 29.1074C277.839 29.1074 278.856 30.3287 278.856 31.7535C278.856 32.7712 278.449 33.789 276.821 35.0103C275.193 36.028 272.75 36.8422 269.493 36.8422C262.573 36.8422 255.245 32.7712 255.245 23.4081C255.245 14.045 262.98 9.77051 268.883 9.77051C274.786 9.97405 281.91 14.6556 281.91 22.3904ZM263.998 20.9655H273.971C273.564 18.1159 271.529 17.0982 269.086 17.0982C266.644 17.0982 264.405 18.1159 263.998 20.9655Z" fill="#322929"/>
    <path d="M318.344 22.7976V33.1784C318.344 35.4174 316.513 37.2493 314.274 37.2493C312.035 37.2493 310.203 35.4174 310.203 33.1784V22.7976C310.203 18.9302 308.371 17.0983 305.725 17.0983C301.654 17.0983 300.636 21.3728 300.636 21.7799V32.9749C300.636 35.2139 298.804 37.0458 296.565 37.0458C294.326 37.0458 292.494 35.2139 292.494 32.9749V14.2487C292.494 12.0096 294.326 10.1777 296.565 10.1777C298.804 10.1777 300.636 12.0096 300.636 14.2487V15.877C300.84 14.0451 303.689 10.1777 308.778 10.1777C314.274 10.1777 318.344 13.8416 318.344 22.7976Z" fill="#322929"/>
    <path d="M330.15 24.4254V14.0446C330.15 11.8055 331.982 9.97363 334.221 9.97363C336.46 9.97363 338.292 11.8055 338.292 14.0446V24.4254C338.292 28.2928 340.124 30.1247 342.77 30.1247C346.841 30.1247 347.859 25.8502 347.859 25.4431V14.2481C347.859 12.0091 349.691 10.1772 351.93 10.1772C354.169 10.1772 356.001 12.0091 356.001 14.2481V32.9744C356.001 35.2134 354.169 37.0453 351.93 37.0453C349.691 37.0453 347.859 35.2134 347.859 32.9744V31.346C347.655 33.1779 344.806 37.0453 339.717 37.0453C334.221 37.0453 330.15 33.3814 330.15 24.4254Z" fill="#322929"/>
    <path fill-rule="evenodd" clip-rule="evenodd" d="M19.1327 39.4606C29.6993 39.4606 38.2653 30.8947 38.2653 20.328C38.2653 9.7613 29.6993 1.19531 19.1327 1.19531C8.56599 1.19531 0 9.7613 0 20.328C0 30.8947 8.56599 39.4606 19.1327 39.4606ZM19.133 32.8841C26.0674 32.8841 31.6888 27.2627 31.6888 20.3283C31.6888 13.3939 26.0674 7.77246 19.133 7.77246C12.1986 7.77246 6.57715 13.3939 6.57715 20.3283C6.57715 27.2627 12.1986 32.8841 19.133 32.8841Z" fill="#322929"/>
    <circle cx="19" cy="20" r="9" fill="#322929"/>
    </svg>
    