<svg width="356" height="86" viewBox="0 0 356 86" fill="none" xmlns="http://www.w3.org/2000/svg">
    <path d="M50.1191 80C49.6991 80 49.3391 79.86 49.0391 79.58C48.7591 79.28 48.6191 78.93 48.6191 78.53V72.02L42.7691 63.35C42.5291 63.05 42.4091 62.72 42.4091 62.36C42.4091 61.94 42.5491 61.58 42.8291 61.28C43.1291 60.98 43.4991 60.83 43.9391 60.83C44.3991 60.83 44.7591 61.01 45.0191 61.37L50.1191 69.08L55.1591 61.34C55.4591 61 55.8291 60.83 56.2691 60.83C56.6691 60.83 57.0191 60.98 57.3191 61.28C57.6191 61.58 57.7691 61.92 57.7691 62.3C57.7691 62.64 57.6491 62.98 57.4091 63.32L51.6191 72.02V78.53C51.6191 78.93 51.4691 79.28 51.1691 79.58C50.8691 79.86 50.5191 80 50.1191 80ZM62.5061 80.18C61.2261 80.18 60.0361 79.86 58.9361 79.22C57.8361 78.58 56.9661 77.71 56.3261 76.61C55.6861 75.51 55.3661 74.31 55.3661 73.01C55.3661 71.73 55.6861 70.54 56.3261 69.44C56.9661 68.34 57.8361 67.47 58.9361 66.83C60.0361 66.19 61.2261 65.87 62.5061 65.87C63.8061 65.87 64.9961 66.19 66.0761 66.83C67.1761 67.47 68.0461 68.34 68.6861 69.44C69.3261 70.52 69.6461 71.71 69.6461 73.01C69.6461 74.31 69.3261 75.51 68.6861 76.61C68.0461 77.71 67.1761 78.58 66.0761 79.22C64.9961 79.86 63.8061 80.18 62.5061 80.18ZM58.3661 73.01C58.3661 73.75 58.5461 74.44 58.9061 75.08C59.2861 75.72 59.7961 76.23 60.4361 76.61C61.0761 76.99 61.7661 77.18 62.5061 77.18C63.2661 77.18 63.9661 76.99 64.6061 76.61C65.2461 76.23 65.7461 75.73 66.1061 75.11C66.4861 74.47 66.6761 73.77 66.6761 73.01C66.6761 72.25 66.4861 71.56 66.1061 70.94C65.7461 70.3 65.2461 69.8 64.6061 69.44C63.9661 69.06 63.2661 68.87 62.5061 68.87C61.7661 68.87 61.0761 69.06 60.4361 69.44C59.7961 69.8 59.2861 70.3 58.9061 70.94C58.5461 71.56 58.3661 72.25 58.3661 73.01ZM82.802 80.03C82.382 80.03 82.032 79.89 81.752 79.61C81.472 79.31 81.332 78.95 81.332 78.53V78.32C80.772 78.86 80.162 79.28 79.502 79.58C78.842 79.88 78.172 80.03 77.492 80.03C76.352 80.03 75.332 79.73 74.432 79.13C73.552 78.53 72.862 77.7 72.362 76.64C71.882 75.58 71.642 74.38 71.642 73.04V67.31C71.642 66.91 71.792 66.57 72.092 66.29C72.392 65.99 72.742 65.84 73.142 65.84C73.542 65.84 73.892 65.99 74.192 66.29C74.492 66.57 74.642 66.91 74.642 67.31V73.07C74.642 74.27 74.922 75.23 75.482 75.95C76.062 76.67 76.852 77.03 77.852 77.03C78.852 77.03 79.682 76.66 80.342 75.92C81.002 75.18 81.332 74.26 81.332 73.16V67.37C81.332 66.95 81.472 66.6 81.752 66.32C82.052 66.02 82.412 65.87 82.832 65.87C83.232 65.87 83.582 66.02 83.882 66.32C84.182 66.6 84.332 66.95 84.332 67.37V78.53C84.332 78.93 84.182 79.28 83.882 79.58C83.582 79.88 83.222 80.03 82.802 80.03ZM88.82 80C88.42 80 88.07 79.86 87.77 79.58C87.47 79.28 87.32 78.92 87.32 78.5V67.34C87.32 66.94 87.46 66.59 87.74 66.29C88.04 65.99 88.4 65.84 88.82 65.84C89.24 65.84 89.59 65.99 89.87 66.29C90.15 66.57 90.29 66.92 90.29 67.34V67.37C91.65 66.37 93.14 65.87 94.76 65.87H94.82C95.3 65.87 95.68 66.01 95.96 66.29C96.24 66.55 96.38 66.9 96.38 67.34C96.38 67.78 96.23 68.14 95.93 68.42C95.63 68.7 95.26 68.84 94.82 68.84H94.76C93.96 68.84 93.22 69.04 92.54 69.44C91.86 69.84 91.31 70.39 90.89 71.09C90.49 71.79 90.29 72.55 90.29 73.37V78.5C90.29 78.92 90.14 79.28 89.84 79.58C89.56 79.86 89.22 80 88.82 80ZM111.227 80.18C109.947 80.18 108.757 79.86 107.657 79.22C106.557 78.58 105.687 77.71 105.047 76.61C104.407 75.51 104.087 74.31 104.087 73.01C104.087 71.73 104.407 70.54 105.047 69.44C105.687 68.34 106.557 67.47 107.657 66.83C108.757 66.19 109.947 65.87 111.227 65.87C112.507 65.87 113.687 66.19 114.767 66.83C115.867 67.47 116.737 68.33 117.377 69.41C118.037 70.49 118.367 71.67 118.367 72.95V78.47C118.367 78.89 118.217 79.25 117.917 79.55C117.637 79.85 117.277 80 116.837 80C116.457 80 116.127 79.87 115.847 79.61C115.587 79.35 115.437 79.02 115.397 78.62C114.137 79.66 112.747 80.18 111.227 80.18ZM107.087 73.01C107.087 73.75 107.267 74.44 107.627 75.08C108.007 75.72 108.517 76.23 109.157 76.61C109.797 76.99 110.487 77.18 111.227 77.18C111.987 77.18 112.687 76.99 113.327 76.61C113.967 76.23 114.467 75.73 114.827 75.11C115.207 74.47 115.397 73.77 115.397 73.01C115.397 72.25 115.207 71.56 114.827 70.94C114.467 70.3 113.967 69.8 113.327 69.44C112.687 69.06 111.987 68.87 111.227 68.87C110.487 68.87 109.797 69.06 109.157 69.44C108.517 69.8 108.007 70.3 107.627 70.94C107.267 71.56 107.087 72.25 107.087 73.01ZM122.862 85.07C122.442 85.07 122.082 84.93 121.782 84.65C121.502 84.37 121.362 84.02 121.362 83.6V67.34C121.362 66.92 121.502 66.57 121.782 66.29C122.082 66.01 122.442 65.87 122.862 65.87C123.262 65.87 123.602 66 123.882 66.26C124.182 66.52 124.342 66.84 124.362 67.22C125.622 66.32 127.012 65.87 128.532 65.87C129.812 65.87 131.002 66.19 132.102 66.83C133.202 67.47 134.072 68.34 134.712 69.44C135.352 70.54 135.672 71.73 135.672 73.01C135.672 74.31 135.352 75.51 134.712 76.61C134.072 77.71 133.202 78.58 132.102 79.22C131.002 79.86 129.812 80.18 128.532 80.18C127.012 80.18 125.622 79.73 124.362 78.83V83.6C124.362 84.02 124.212 84.37 123.912 84.65C123.632 84.93 123.282 85.07 122.862 85.07ZM124.362 73.01C124.362 73.75 124.542 74.44 124.902 75.08C125.282 75.72 125.792 76.23 126.432 76.61C127.072 76.99 127.772 77.18 128.532 77.18C129.292 77.18 129.982 76.99 130.602 76.61C131.242 76.23 131.742 75.72 132.102 75.08C132.482 74.44 132.672 73.75 132.672 73.01C132.672 72.25 132.482 71.56 132.102 70.94C131.742 70.3 131.242 69.8 130.602 69.44C129.982 69.06 129.292 68.87 128.532 68.87C127.772 68.87 127.072 69.06 126.432 69.44C125.792 69.8 125.282 70.3 124.902 70.94C124.542 71.56 124.362 72.25 124.362 73.01ZM139.298 85.07C138.878 85.07 138.518 84.93 138.218 84.65C137.938 84.37 137.798 84.02 137.798 83.6V67.34C137.798 66.92 137.938 66.57 138.218 66.29C138.518 66.01 138.878 65.87 139.298 65.87C139.698 65.87 140.038 66 140.318 66.26C140.618 66.52 140.778 66.84 140.798 67.22C142.058 66.32 143.448 65.87 144.968 65.87C146.248 65.87 147.438 66.19 148.538 66.83C149.638 67.47 150.508 68.34 151.148 69.44C151.788 70.54 152.108 71.73 152.108 73.01C152.108 74.31 151.788 75.51 151.148 76.61C150.508 77.71 149.638 78.58 148.538 79.22C147.438 79.86 146.248 80.18 144.968 80.18C143.448 80.18 142.058 79.73 140.798 78.83V83.6C140.798 84.02 140.648 84.37 140.348 84.65C140.068 84.93 139.718 85.07 139.298 85.07ZM140.798 73.01C140.798 73.75 140.978 74.44 141.338 75.08C141.718 75.72 142.228 76.23 142.868 76.61C143.508 76.99 144.208 77.18 144.968 77.18C145.728 77.18 146.418 76.99 147.038 76.61C147.678 76.23 148.178 75.72 148.538 75.08C148.918 74.44 149.108 73.75 149.108 73.01C149.108 72.25 148.918 71.56 148.538 70.94C148.178 70.3 147.678 69.8 147.038 69.44C146.418 69.06 145.728 68.87 144.968 68.87C144.208 68.87 143.508 69.06 142.868 69.44C142.228 69.8 141.718 70.3 141.338 70.94C140.978 71.56 140.798 72.25 140.798 73.01ZM163.792 80C163.372 80 163.012 79.86 162.712 79.58C162.432 79.28 162.292 78.93 162.292 78.53V68.87H161.212C160.792 68.87 160.432 68.72 160.132 68.42C159.852 68.12 159.712 67.77 159.712 67.37C159.712 66.95 159.852 66.6 160.132 66.32C160.432 66.04 160.792 65.9 161.212 65.9H162.292V62.27C162.292 61.85 162.432 61.5 162.712 61.22C163.012 60.94 163.372 60.8 163.792 60.8C164.192 60.8 164.532 60.94 164.812 61.22C165.112 61.5 165.262 61.85 165.262 62.27V65.9H166.552C166.992 65.9 167.352 66.04 167.632 66.32C167.912 66.6 168.052 66.95 168.052 67.37C168.052 67.79 167.912 68.15 167.632 68.45C167.352 68.73 166.992 68.87 166.552 68.87H165.262V78.53C165.262 78.93 165.112 79.28 164.812 79.58C164.532 79.86 164.192 80 163.792 80ZM176.002 80.18C174.722 80.18 173.532 79.86 172.432 79.22C171.332 78.58 170.462 77.71 169.822 76.61C169.182 75.51 168.862 74.31 168.862 73.01C168.862 71.73 169.182 70.54 169.822 69.44C170.462 68.34 171.332 67.47 172.432 66.83C173.532 66.19 174.722 65.87 176.002 65.87C177.302 65.87 178.492 66.19 179.572 66.83C180.672 67.47 181.542 68.34 182.182 69.44C182.822 70.52 183.142 71.71 183.142 73.01C183.142 74.31 182.822 75.51 182.182 76.61C181.542 77.71 180.672 78.58 179.572 79.22C178.492 79.86 177.302 80.18 176.002 80.18ZM171.862 73.01C171.862 73.75 172.042 74.44 172.402 75.08C172.782 75.72 173.292 76.23 173.932 76.61C174.572 76.99 175.262 77.18 176.002 77.18C176.762 77.18 177.462 76.99 178.102 76.61C178.742 76.23 179.242 75.73 179.602 75.11C179.982 74.47 180.172 73.77 180.172 73.01C180.172 72.25 179.982 71.56 179.602 70.94C179.242 70.3 178.742 69.8 178.102 69.44C177.462 69.06 176.762 68.87 176.002 68.87C175.262 68.87 174.572 69.06 173.932 69.44C173.292 69.8 172.782 70.3 172.402 70.94C172.042 71.56 171.862 72.25 171.862 73.01ZM198.356 80.18C197.076 80.18 195.886 79.86 194.786 79.22C193.686 78.58 192.806 77.71 192.146 76.61C191.506 75.51 191.186 74.31 191.186 73.01C191.186 71.71 191.506 70.52 192.146 69.44C192.806 68.34 193.676 67.47 194.756 66.83C195.856 66.19 197.056 65.87 198.356 65.87C199.636 65.87 200.826 66.19 201.926 66.83C203.026 67.45 203.896 68.31 204.536 69.41C205.196 70.49 205.536 71.67 205.556 72.95C205.556 73.37 205.416 73.71 205.136 73.97C204.856 74.23 204.506 74.36 204.086 74.36H194.486C194.726 75.22 195.206 75.93 195.926 76.49C196.646 77.03 197.456 77.3 198.356 77.3C199.536 77.3 200.436 76.94 201.056 76.22C201.336 75.94 201.636 75.8 201.956 75.8C202.196 75.8 202.436 75.87 202.676 76.01C202.916 76.15 203.116 76.34 203.276 76.58C203.436 76.84 203.516 77.1 203.516 77.36C203.516 77.82 203.326 78.21 202.946 78.53C202.366 79.03 201.716 79.43 200.996 79.73C200.276 80.03 199.396 80.18 198.356 80.18ZM202.466 71.87C202.246 70.95 201.766 70.2 201.026 69.62C200.286 69.02 199.416 68.72 198.416 68.72C197.436 68.72 196.576 69.02 195.836 69.62C195.096 70.22 194.616 70.97 194.396 71.87H202.466ZM214 80.18C212.72 80.18 211.53 79.86 210.43 79.22C209.33 78.58 208.46 77.71 207.82 76.61C207.18 75.51 206.86 74.31 206.86 73.01C206.86 71.73 207.18 70.54 207.82 69.44C208.46 68.34 209.33 67.47 210.43 66.83C211.53 66.19 212.72 65.87 214 65.87C215.28 65.87 216.46 66.19 217.54 66.83C218.64 67.47 219.51 68.33 220.15 69.41C220.81 70.49 221.14 71.67 221.14 72.95V78.47C221.14 78.89 220.99 79.25 220.69 79.55C220.41 79.85 220.05 80 219.61 80C219.23 80 218.9 79.87 218.62 79.61C218.36 79.35 218.21 79.02 218.17 78.62C216.91 79.66 215.52 80.18 214 80.18ZM209.86 73.01C209.86 73.75 210.04 74.44 210.4 75.08C210.78 75.72 211.29 76.23 211.93 76.61C212.57 76.99 213.26 77.18 214 77.18C214.76 77.18 215.46 76.99 216.1 76.61C216.74 76.23 217.24 75.73 217.6 75.11C217.98 74.47 218.17 73.77 218.17 73.01C218.17 72.25 217.98 71.56 217.6 70.94C217.24 70.3 216.74 69.8 216.1 69.44C215.46 69.06 214.76 68.87 214 68.87C213.26 68.87 212.57 69.06 211.93 69.44C211.29 69.8 210.78 70.3 210.4 70.94C210.04 71.56 209.86 72.25 209.86 73.01ZM226.956 80C226.536 80 226.176 79.86 225.876 79.58C225.596 79.28 225.456 78.93 225.456 78.53V68.87H224.376C223.956 68.87 223.596 68.72 223.296 68.42C223.016 68.12 222.876 67.77 222.876 67.37C222.876 66.95 223.016 66.6 223.296 66.32C223.596 66.04 223.956 65.9 224.376 65.9H225.456V62.27C225.456 61.85 225.596 61.5 225.876 61.22C226.176 60.94 226.536 60.8 226.956 60.8C227.356 60.8 227.696 60.94 227.976 61.22C228.276 61.5 228.426 61.85 228.426 62.27V65.9H229.716C230.156 65.9 230.516 66.04 230.796 66.32C231.076 66.6 231.216 66.95 231.216 67.37C231.216 67.79 231.076 68.15 230.796 68.45C230.516 68.73 230.156 68.87 229.716 68.87H228.426V78.53C228.426 78.93 228.276 79.28 227.976 79.58C227.696 79.86 227.356 80 226.956 80ZM244.132 80.18C243.092 80.18 242.092 79.97 241.132 79.55C240.172 79.11 239.462 78.47 239.002 77.63C238.842 77.37 238.762 77.09 238.762 76.79C238.762 76.41 238.892 76.1 239.152 75.86C239.432 75.6 239.762 75.47 240.142 75.47C240.722 75.47 241.172 75.71 241.492 76.19C241.812 76.67 242.172 77.02 242.572 77.24C242.992 77.44 243.502 77.54 244.102 77.54C244.682 77.54 245.182 77.4 245.602 77.12C246.042 76.84 246.262 76.48 246.262 76.04C246.262 75.52 246.052 75.14 245.632 74.9C245.212 74.66 244.612 74.43 243.832 74.21C242.332 73.69 241.172 73.12 240.352 72.5C239.532 71.88 239.122 71.03 239.122 69.95C239.122 69.13 239.352 68.41 239.812 67.79C240.272 67.17 240.872 66.69 241.612 66.35C242.372 66.01 243.182 65.84 244.042 65.84C244.962 65.84 245.842 66.02 246.682 66.38C247.522 66.72 248.102 67.21 248.422 67.85C248.522 68.09 248.572 68.3 248.572 68.48C248.572 68.82 248.442 69.12 248.182 69.38C247.922 69.64 247.622 69.77 247.282 69.77C247.042 69.77 246.872 69.73 246.772 69.65C246.272 69.25 245.832 68.95 245.452 68.75C245.072 68.55 244.642 68.45 244.162 68.45C243.542 68.45 243.042 68.57 242.662 68.81C242.302 69.05 242.122 69.4 242.122 69.86C242.122 70.3 242.322 70.65 242.722 70.91C243.142 71.15 243.792 71.41 244.672 71.69C246.132 72.15 247.242 72.68 248.002 73.28C248.782 73.88 249.172 74.76 249.172 75.92C249.172 76.7 248.952 77.42 248.512 78.08C248.072 78.72 247.462 79.23 246.682 79.61C245.922 79.99 245.072 80.18 244.132 80.18ZM252.911 80C252.511 80 252.161 79.86 251.861 79.58C251.561 79.28 251.411 78.92 251.411 78.5V67.34C251.411 66.94 251.561 66.59 251.861 66.29C252.161 65.99 252.521 65.84 252.941 65.84C253.301 65.84 253.611 65.96 253.871 66.2C254.151 66.44 254.321 66.74 254.381 67.1C255.261 66.26 256.241 65.84 257.321 65.84C258.101 65.84 258.811 66 259.451 66.32C260.111 66.62 260.671 67.05 261.131 67.61C261.731 67.05 262.401 66.62 263.141 66.32C263.901 66 264.661 65.84 265.421 65.84C266.421 65.84 267.301 66.09 268.061 66.59C268.821 67.07 269.411 67.73 269.831 68.57C270.251 69.39 270.461 70.3 270.461 71.3V78.53C270.461 78.93 270.311 79.28 270.011 79.58C269.731 79.86 269.391 80 268.991 80C268.591 80 268.241 79.86 267.941 79.58C267.641 79.28 267.491 78.93 267.491 78.53V71.24C267.471 70.54 267.241 69.97 266.801 69.53C266.381 69.07 265.841 68.84 265.181 68.84C264.501 68.84 263.881 69.07 263.321 69.53C262.761 69.99 262.461 70.54 262.421 71.18V78.53C262.421 78.93 262.271 79.28 261.971 79.58C261.691 79.86 261.351 80 260.951 80C260.551 80 260.201 79.86 259.901 79.58C259.601 79.28 259.451 78.93 259.451 78.53V71.18C259.411 70.5 259.181 69.94 258.761 69.5C258.341 69.06 257.801 68.84 257.141 68.84C256.461 68.84 255.841 69.07 255.281 69.53C254.721 69.99 254.431 70.54 254.411 71.18V71.27C254.391 71.27 254.381 71.29 254.381 71.33C254.401 71.35 254.411 71.37 254.411 71.39V71.45V78.5C254.411 78.92 254.261 79.28 253.961 79.58C253.681 79.86 253.331 80 252.911 80ZM279.567 80.18C278.287 80.18 277.097 79.86 275.997 79.22C274.897 78.58 274.027 77.71 273.387 76.61C272.747 75.51 272.427 74.31 272.427 73.01C272.427 71.73 272.747 70.54 273.387 69.44C274.027 68.34 274.897 67.47 275.997 66.83C277.097 66.19 278.287 65.87 279.567 65.87C280.847 65.87 282.027 66.19 283.107 66.83C284.207 67.47 285.077 68.33 285.717 69.41C286.377 70.49 286.707 71.67 286.707 72.95V78.47C286.707 78.89 286.557 79.25 286.257 79.55C285.977 79.85 285.617 80 285.177 80C284.797 80 284.467 79.87 284.187 79.61C283.927 79.35 283.777 79.02 283.737 78.62C282.477 79.66 281.087 80.18 279.567 80.18ZM275.427 73.01C275.427 73.75 275.607 74.44 275.967 75.08C276.347 75.72 276.857 76.23 277.497 76.61C278.137 76.99 278.827 77.18 279.567 77.18C280.327 77.18 281.027 76.99 281.667 76.61C282.307 76.23 282.807 75.73 283.167 75.11C283.547 74.47 283.737 73.77 283.737 73.01C283.737 72.25 283.547 71.56 283.167 70.94C282.807 70.3 282.307 69.8 281.667 69.44C281.027 69.06 280.327 68.87 279.567 68.87C278.827 68.87 278.137 69.06 277.497 69.44C276.857 69.8 276.347 70.3 275.967 70.94C275.607 71.56 275.427 72.25 275.427 73.01ZM291.232 80C290.832 80 290.482 79.86 290.182 79.58C289.882 79.28 289.732 78.92 289.732 78.5V67.34C289.732 66.94 289.872 66.59 290.152 66.29C290.452 65.99 290.812 65.84 291.232 65.84C291.652 65.84 292.002 65.99 292.282 66.29C292.562 66.57 292.702 66.92 292.702 67.34V67.37C294.062 66.37 295.552 65.87 297.172 65.87H297.232C297.712 65.87 298.092 66.01 298.372 66.29C298.652 66.55 298.792 66.9 298.792 67.34C298.792 67.78 298.642 68.14 298.342 68.42C298.042 68.7 297.672 68.84 297.232 68.84H297.172C296.372 68.84 295.632 69.04 294.952 69.44C294.272 69.84 293.722 70.39 293.302 71.09C292.902 71.79 292.702 72.55 292.702 73.37V78.5C292.702 78.92 292.552 79.28 292.252 79.58C291.972 79.86 291.632 80 291.232 80ZM303.421 80C303.001 80 302.641 79.86 302.341 79.58C302.061 79.28 301.921 78.93 301.921 78.53V68.87H300.841C300.421 68.87 300.061 68.72 299.761 68.42C299.481 68.12 299.341 67.77 299.341 67.37C299.341 66.95 299.481 66.6 299.761 66.32C300.061 66.04 300.421 65.9 300.841 65.9H301.921V62.27C301.921 61.85 302.061 61.5 302.341 61.22C302.641 60.94 303.001 60.8 303.421 60.8C303.821 60.8 304.161 60.94 304.441 61.22C304.741 61.5 304.891 61.85 304.891 62.27V65.9H306.181C306.621 65.9 306.981 66.04 307.261 66.32C307.541 66.6 307.681 66.95 307.681 67.37C307.681 67.79 307.541 68.15 307.261 68.45C306.981 68.73 306.621 68.87 306.181 68.87H304.891V78.53C304.891 78.93 304.741 79.28 304.441 79.58C304.161 79.86 303.821 80 303.421 80ZM311.159 80.18C310.679 80.18 310.259 80.01 309.899 79.67C309.559 79.31 309.389 78.89 309.389 78.41C309.389 77.91 309.559 77.49 309.899 77.15C310.259 76.79 310.679 76.61 311.159 76.61C311.659 76.61 312.079 76.79 312.419 77.15C312.779 77.49 312.959 77.91 312.959 78.41C312.959 78.89 312.779 79.31 312.419 79.67C312.079 80.01 311.659 80.18 311.159 80.18Z" fill="#322929"/>
    <path d="M100.957 22.7971V33.1779C100.957 35.4169 99.1254 37.2488 96.8864 37.2488C94.6474 37.2488 92.8154 35.4169 92.8154 33.1779V22.7971C92.8154 18.9298 90.9835 17.0978 88.3374 17.0978C84.2665 17.0978 83.2488 21.3723 83.2488 21.7794V22.7971V33.1779C83.2488 35.4169 81.4169 37.2488 79.1779 37.2488C76.9389 37.2488 75.1069 35.4169 75.1069 33.1779V22.7971C75.1069 18.9298 73.275 17.0978 70.6289 17.0978C66.558 17.0978 65.5403 21.3723 65.5403 21.7794V32.9744C65.5403 35.2134 63.7084 37.0453 61.4694 37.0453C59.2304 37.0453 57.3984 35.2134 57.3984 32.9744V14.2482C57.3984 12.0092 59.2304 10.1772 61.4694 10.1772C63.7084 10.1772 65.5403 12.0092 65.5403 14.2482V15.8765C65.7438 14.0446 68.5935 10.1772 73.6821 10.1772C77.3459 10.1772 80.6027 12.0092 82.231 16.2836C83.6559 13.2304 86.7091 10.1772 91.3906 10.1772C96.6828 10.1772 100.957 13.8411 100.957 22.7971Z" fill="#322929"/>
    <path d="M114.595 4.07092C114.595 1.83191 116.427 0 118.666 0C120.905 0 122.737 1.83191 122.737 4.07092C122.737 6.10638 120.701 7.93828 118.666 7.93828C116.63 7.93828 114.595 6.10638 114.595 4.07092ZM122.94 14.2482V32.9745C122.94 35.2135 121.108 37.0454 118.869 37.0454C116.63 37.0454 114.798 35.2135 114.798 32.9745V14.2482C114.798 12.0092 116.63 10.1773 118.869 10.1773C121.108 10.1773 122.94 12.0092 122.94 14.2482Z" fill="#322929"/>
    <path d="M164.464 22.7971V33.1779C164.464 35.4169 162.632 37.2488 160.393 37.2488C158.154 37.2488 156.322 35.4169 156.322 33.1779V22.7971C156.322 18.9298 154.49 17.0978 151.844 17.0978C147.773 17.0978 146.755 21.3723 146.755 21.7794V32.9744C146.755 35.2134 144.923 37.0453 142.684 37.0453C140.445 37.0453 138.613 35.2134 138.613 32.9744V14.2482C138.613 12.0092 140.445 10.1772 142.684 10.1772C144.923 10.1772 146.755 12.0092 146.755 14.2482V15.8765C146.959 14.0446 149.808 10.1772 154.897 10.1772C160.393 10.1772 164.464 13.8411 164.464 22.7971Z" fill="#322929"/>
    <path d="M180.34 4.07092C180.34 1.83191 182.172 0 184.411 0C186.65 0 188.482 1.83191 188.482 4.07092C188.482 6.10638 186.65 7.93828 184.411 7.93828C182.172 7.93828 180.34 6.10638 180.34 4.07092ZM188.482 14.2482V32.9745C188.482 35.2135 186.65 37.0454 184.411 37.0454C182.172 37.0454 180.34 35.2135 180.34 32.9745V14.2482C180.34 12.0092 182.172 10.1773 184.411 10.1773C186.65 10.1773 188.482 12.0092 188.482 14.2482Z" fill="#322929"/>
    <path d="M244.864 5.08869V32.771C244.864 35.01 242.829 37.0454 240.59 37.0454C238.351 37.0454 236.519 35.01 236.519 32.771V19.744L229.395 33.178C228.581 34.6028 227.359 35.417 225.731 35.417C224.306 35.417 222.881 34.6028 222.271 33.178L215.147 19.744V32.771C215.147 35.01 213.315 37.0454 210.872 37.0454C208.43 37.0454 206.598 35.01 206.598 32.771V5.08869C206.598 2.4426 208.633 1.22133 210.465 1.22133C212.093 1.22133 213.722 2.64613 214.536 3.8674L225.731 23.6114L236.926 3.8674C237.74 2.44258 239.369 1.22133 240.997 1.22133C242.829 1.01779 244.864 2.4426 244.864 5.08869Z" fill="#322929"/>
    <path d="M281.91 22.3904C281.91 25.6471 280.281 26.6649 277.025 26.6649L263.998 26.4613C264.812 29.1074 266.847 30.5322 270.104 30.5322C271.529 30.5322 271.936 30.3287 273.361 29.9216C274.378 29.5145 275.396 29.1074 276.21 29.1074C277.839 29.1074 278.856 30.3287 278.856 31.7535C278.856 32.7712 278.449 33.789 276.821 35.0103C275.193 36.028 272.75 36.8422 269.493 36.8422C262.573 36.8422 255.245 32.7712 255.245 23.4081C255.245 14.045 262.98 9.77051 268.883 9.77051C274.786 9.97405 281.91 14.6556 281.91 22.3904ZM263.998 20.9655H273.971C273.564 18.1159 271.529 17.0982 269.086 17.0982C266.644 17.0982 264.405 18.1159 263.998 20.9655Z" fill="#322929"/>
    <path d="M318.344 22.7971V33.1779C318.344 35.4169 316.513 37.2488 314.274 37.2488C312.035 37.2488 310.203 35.4169 310.203 33.1779V22.7971C310.203 18.9298 308.371 17.0978 305.725 17.0978C301.654 17.0978 300.636 21.3723 300.636 21.7794V32.9744C300.636 35.2134 298.804 37.0453 296.565 37.0453C294.326 37.0453 292.494 35.2134 292.494 32.9744V14.2482C292.494 12.0092 294.326 10.1772 296.565 10.1772C298.804 10.1772 300.636 12.0092 300.636 14.2482V15.8765C300.84 14.0446 303.689 10.1772 308.778 10.1772C314.274 10.1772 318.344 13.8411 318.344 22.7971Z" fill="#322929"/>
    <path d="M330.15 24.4254V14.0446C330.15 11.8055 331.982 9.97363 334.221 9.97363C336.46 9.97363 338.292 11.8055 338.292 14.0446V24.4254C338.292 28.2928 340.124 30.1247 342.77 30.1247C346.841 30.1247 347.859 25.8502 347.859 25.4431V14.2481C347.859 12.0091 349.691 10.1772 351.93 10.1772C354.169 10.1772 356.001 12.0091 356.001 14.2481V32.9744C356.001 35.2134 354.169 37.0453 351.93 37.0453C349.691 37.0453 347.859 35.2134 347.859 32.9744V31.346C347.655 33.1779 344.806 37.0453 339.717 37.0453C334.221 37.0453 330.15 33.3814 330.15 24.4254Z" fill="#322929"/>
    <path fill-rule="evenodd" clip-rule="evenodd" d="M19.1327 39.4611C29.6993 39.4611 38.2653 30.8951 38.2653 20.3285C38.2653 9.76179 29.6993 1.1958 19.1327 1.1958C8.56599 1.1958 0 9.76179 0 20.3285C0 30.8951 8.56599 39.4611 19.1327 39.4611ZM19.133 32.8841C26.0674 32.8841 31.6888 27.2627 31.6888 20.3283C31.6888 13.3939 26.0674 7.77246 19.133 7.77246C12.1986 7.77246 6.57715 13.3939 6.57715 20.3283C6.57715 27.2627 12.1986 32.8841 19.133 32.8841Z" fill="#322929"/>
    <circle cx="19" cy="20" r="9" fill="#322929"/>
</svg>
    